<mxfile host="app.diagrams.net" modified="2024-05-29T12:02:34.417Z" agent="Mozilla/5.0 (Windows NT 10.0; Win64; x64) AppleWebKit/537.36 (KHTML, like Gecko) Chrome/125.0.0.0 Safari/537.36" version="24.4.9" etag="Ugc4y6-3VJ-1AHC5ts-2" type="github">
  <diagram name="第 1 页" id="6uFyUrDaSOijIXAPy0l-">
    <mxGraphModel>
      <root>
        <mxCell id="0" />
        <mxCell id="1" parent="0" />
      </root>
    </mxGraphModel>
  </diagram>
</mxfile>
